<?xml version="1.0" standalone="no"?>
<!DOCTYPE svg PUBLIC "-//W3C//DTD SVG 20010904//EN"
 "http://www.w3.org/TR/2001/REC-SVG-20010904/DTD/svg10.dtd">
<svg version="1.0" xmlns="http://www.w3.org/2000/svg"
 width="960.000000pt" height="960.000000pt" viewBox="0 0 960.000000 960.000000"
 preserveAspectRatio="xMidYMid meet">
<metadata>
Created by potrace 1.14, written by Peter Selinger 2001-2017
</metadata>
<g transform="translate(0.000000,960.000000) scale(0.100000,-0.100000)"
fill="#000000" stroke="none">
<path d="M4538 9595 c-1 -1 -49 -6 -105 -9 -57 -4 -111 -9 -121 -11 -10 -1
-49 -6 -87 -9 -39 -4 -77 -9 -85 -11 -8 -2 -35 -6 -60 -9 -25 -3 -54 -8 -65
-10 -11 -2 -72 -13 -135 -25 -157 -30 -430 -101 -575 -151 -66 -23 -124 -42
-130 -44 -13 -3 -122 -44 -160 -60 -16 -8 -75 -33 -130 -56 -127 -54 -344
-162 -459 -229 -49 -28 -91 -51 -93 -51 -2 0 -16 -9 -31 -19 -15 -10 -74 -49
-132 -87 -58 -37 -107 -70 -110 -73 -3 -3 -27 -21 -55 -40 -67 -46 -275 -208
-329 -256 -145 -129 -206 -188 -305 -289 -135 -137 -114 -114 -222 -241 -47
-55 -122 -147 -166 -205 -78 -103 -253 -355 -253 -366 0 -3 -13 -24 -28 -47
-16 -23 -43 -69 -62 -102 -18 -33 -42 -76 -53 -95 -125 -222 -275 -573 -364
-855 -40 -127 -105 -375 -119 -450 -3 -16 -14 -75 -24 -130 -11 -55 -22 -117
-25 -137 -11 -78 -14 -104 -20 -158 -4 -30 -8 -65 -10 -78 -30 -198 -25 -842
9 -1065 2 -18 7 -54 11 -82 3 -27 10 -72 15 -100 5 -27 12 -66 14 -85 7 -42
12 -70 26 -130 5 -25 12 -56 14 -70 2 -14 14 -63 26 -110 12 -47 24 -93 26
-103 5 -29 82 -272 114 -362 105 -296 272 -642 444 -920 98 -158 308 -450 382
-530 11 -11 42 -47 69 -80 60 -71 64 -77 181 -196 194 -199 341 -330 554 -491
106 -80 289 -207 352 -243 388 -226 620 -338 923 -445 90 -32 333 -109 362
-114 10 -2 56 -14 103 -26 47 -12 96 -24 110 -26 14 -3 66 -13 115 -24 90 -19
332 -55 435 -65 182 -17 261 -20 495 -20 229 0 351 5 475 19 19 3 60 7 90 11
169 18 438 68 605 112 33 8 65 16 70 17 6 1 37 10 70 20 33 10 67 20 75 21 27
6 273 92 365 128 164 64 415 181 550 257 110 61 137 77 220 129 123 76 279
182 283 192 2 5 8 9 13 9 5 0 17 6 26 14 10 8 65 52 123 97 392 307 727 668
1014 1092 47 70 86 130 86 133 0 3 13 24 28 47 72 105 224 400 302 582 23 55
50 118 60 140 10 22 21 51 25 65 4 14 13 39 20 55 25 58 105 311 140 445 52
202 103 467 120 630 3 30 8 69 10 85 20 176 27 661 12 850 -12 139 -16 187
-21 220 -3 17 -7 53 -11 80 -3 28 -10 73 -15 100 -5 28 -12 66 -14 85 -6 39
-5 34 -36 178 -22 105 -93 369 -128 477 -23 69 -88 250 -101 280 -10 24 -17
40 -74 170 -74 167 -195 407 -209 413 -5 2 -8 8 -8 13 0 41 -364 572 -472 689
-13 14 -36 41 -52 60 -95 116 -324 350 -461 470 -102 90 -118 103 -190 161
-135 108 -357 266 -457 324 -112 66 -155 91 -163 94 -5 2 -12 7 -15 10 -19 23
-349 182 -590 284 -156 66 -587 197 -725 222 -11 1 -64 12 -117 24 -113 24
-340 57 -451 66 -43 4 -88 9 -100 12 -24 5 -633 14 -639 8z"/>
</g>
</svg>
